<svg width="178" height="61" viewBox="0 0 178 61" fill="none" xmlns="http://www.w3.org/2000/svg">
<g clip-path="url(#clip0_1420_6103)">
<path d="M7.25292 0H170.555C174.539 0 177.776 3.2818 177.776 7.32V53.68C177.776 57.7182 174.539 61 170.555 61H7.25292C3.26964 61 0.0324707 57.7182 0.0324707 53.68V7.32C0.0324707 3.2818 3.26964 0 7.25292 0Z" fill="black"/>
<path d="M38.9387 29.109C38.9026 24.7414 42.4647 22.6186 42.6212 22.521C40.5994 19.5442 37.4706 19.1294 36.3755 19.0928C33.752 18.8122 31.2008 20.691 29.865 20.691C28.5052 20.691 26.4353 19.1294 24.221 19.166C21.369 19.2148 18.6854 20.8862 17.2292 23.497C14.2087 28.804 16.4591 36.612 19.3593 40.9064C20.8154 43.0048 22.5002 45.3594 24.7265 45.274C26.8926 45.1886 27.7109 43.871 30.3223 43.871C32.9217 43.871 33.6798 45.274 35.9422 45.2252C38.2769 45.1886 39.733 43.1146 41.141 40.9918C42.8137 38.5884 43.4876 36.2094 43.5117 36.0874C43.4515 36.063 38.9869 34.3306 38.9387 29.109ZM34.6666 16.2746C35.8339 14.7984 36.6282 12.7854 36.4116 10.7358C34.7268 10.809 32.6088 11.9192 31.3934 13.371C30.3223 14.652 29.3596 16.7382 29.6003 18.7024C31.5017 18.8488 33.4512 17.7264 34.6666 16.2746ZM70.3717 44.969H67.3392L65.6785 39.6742H59.9021L58.3256 44.969H55.3773L61.0935 26.9496H64.6315L70.3717 44.969ZM65.1851 37.4538L63.6808 32.7568C63.5244 32.2688 63.2235 31.1464 62.7903 29.3652H62.7301C62.5496 30.1338 62.2728 31.2684 61.8877 32.7568L60.4075 37.4538H65.1851ZM85.0654 38.32C85.0654 40.5282 84.4757 42.2728 83.2843 43.5538C82.2253 44.7006 80.9016 45.2618 79.3371 45.2618C77.6403 45.2618 76.4249 44.6518 75.6788 43.4196V50.2394H72.8267V36.246C72.8267 34.8552 72.7906 33.44 72.7184 31.976H75.2215L75.3779 34.0378H75.4261C76.3768 32.4884 77.8209 31.7076 79.7463 31.7076C81.2626 31.7076 82.5141 32.3176 83.525 33.5254C84.5599 34.7454 85.0654 36.3314 85.0654 38.32ZM82.1652 38.4176C82.1652 37.1488 81.8884 36.1118 81.3228 35.2944C80.709 34.4404 79.8787 34.0134 78.8438 34.0134C78.1458 34.0134 77.508 34.2574 76.9303 34.721C76.3647 35.1968 75.9796 35.8068 75.8112 36.5754C75.7269 36.9292 75.6788 37.222 75.6788 37.4538V39.6254C75.6788 40.5648 75.9676 41.37 76.5332 42.0166C77.0988 42.6632 77.8449 42.9926 78.7595 42.9926C79.8305 42.9926 80.6609 42.5656 81.2626 41.736C81.8643 40.8942 82.1652 39.7962 82.1652 38.4176ZM99.7951 38.32C99.7951 40.5282 99.2054 42.2728 98.014 43.5538C96.955 44.7006 95.6313 45.2618 94.0669 45.2618C92.3701 45.2618 91.1546 44.6518 90.4085 43.4196V50.2394H87.5564V36.246C87.5564 34.8552 87.5203 33.44 87.4481 31.976H89.9512L90.1076 34.0378H90.1558C91.1065 32.4884 92.5506 31.7076 94.476 31.7076C95.9923 31.7076 97.2439 32.3176 98.2547 33.5254C99.2896 34.7454 99.7951 36.3314 99.7951 38.32ZM96.8949 38.4176C96.8949 37.1488 96.6181 36.1118 96.0525 35.2944C95.4388 34.4404 94.6084 34.0134 93.5735 34.0134C92.8755 34.0134 92.2377 34.2574 91.66 34.721C91.0944 35.1968 90.7214 35.8068 90.5409 36.5754C90.4566 36.9292 90.4085 37.222 90.4085 37.4538V39.6254C90.4085 40.5648 90.6973 41.37 91.2629 42.0166C91.8285 42.6632 92.5746 42.9926 93.4892 42.9926C94.5603 42.9926 95.4026 42.5656 95.9923 41.736C96.6061 40.8942 96.8949 39.7962 96.8949 38.4176ZM116.282 39.9182C116.282 41.4554 115.752 42.6998 114.705 43.6636C113.55 44.7128 111.937 45.2374 109.868 45.2374C107.954 45.2374 106.426 44.8592 105.271 44.115L105.932 41.7116C107.184 42.4558 108.556 42.834 110.048 42.834C111.119 42.834 111.962 42.59 112.551 42.102C113.153 41.614 113.454 40.9552 113.454 40.1378C113.454 39.4058 113.201 38.7958 112.72 38.2956C112.226 37.7954 111.408 37.3318 110.265 36.9048C107.124 35.7214 105.571 34.0012 105.571 31.7442C105.571 30.268 106.125 29.0602 107.22 28.1086C108.315 27.1692 109.771 26.6934 111.588 26.6934C113.201 26.6934 114.549 26.974 115.62 27.5474L114.898 29.8898C113.887 29.3408 112.756 29.0602 111.48 29.0602C110.481 29.0602 109.687 29.3164 109.121 29.8044C108.652 30.2558 108.411 30.7926 108.411 31.4392C108.411 32.1468 108.688 32.7446 109.23 33.196C109.699 33.623 110.566 34.0866 111.817 34.5868C113.345 35.209 114.465 35.941 115.187 36.7828C115.921 37.6246 116.282 38.6738 116.282 39.9182ZM125.716 34.1476H122.576V40.455C122.576 42.0532 123.129 42.8584 124.236 42.8584C124.742 42.8584 125.163 42.8096 125.5 42.7242L125.584 44.9202C125.019 45.1276 124.284 45.2374 123.37 45.2374C122.239 45.2374 121.372 44.8836 120.734 44.1882C120.097 43.4928 119.784 42.3216 119.784 40.6868V34.1354H117.918V31.976H119.784V29.597L122.576 28.743V31.976H125.716V34.1476ZM139.845 38.3688C139.845 40.3696 139.279 42.0044 138.16 43.2854C136.98 44.603 135.416 45.2618 133.466 45.2618C131.589 45.2618 130.085 44.6274 128.966 43.3708C127.847 42.1142 127.293 40.516 127.293 38.5884C127.293 36.5754 127.871 34.9284 129.014 33.6474C130.169 32.3664 131.722 31.7198 133.671 31.7198C135.548 31.7198 137.065 32.3542 138.208 33.623C139.303 34.843 139.845 36.429 139.845 38.3688ZM136.896 38.4298C136.896 37.2342 136.643 36.2216 136.138 35.3676C135.536 34.3306 134.682 33.8182 133.575 33.8182C132.432 33.8182 131.553 34.3306 130.963 35.3676C130.446 36.2216 130.205 37.2586 130.205 38.4908C130.205 39.6864 130.458 40.7112 130.963 41.553C131.577 42.59 132.444 43.1024 133.551 43.1024C134.634 43.1024 135.488 42.5778 136.114 41.5286C136.631 40.6502 136.896 39.6254 136.896 38.4298ZM149.111 34.5136C148.834 34.4648 148.533 34.4404 148.208 34.4404C147.209 34.4404 146.427 34.8186 145.886 35.5872C145.416 36.2582 145.176 37.1244 145.176 38.1492V44.969H142.324V36.063C142.324 34.5624 142.299 33.196 142.239 31.976H144.718L144.827 34.4648H144.911C145.212 33.6108 145.681 32.9154 146.331 32.403C146.969 31.9394 147.655 31.7076 148.389 31.7076C148.653 31.7076 148.894 31.732 149.099 31.7564L149.111 34.5136ZM161.843 37.8564C161.843 38.3688 161.807 38.808 161.735 39.1618H153.19C153.226 40.4428 153.636 41.431 154.43 42.102C155.152 42.6998 156.078 43.0048 157.222 43.0048C158.485 43.0048 159.641 42.7974 160.676 42.3948L161.121 44.3956C159.905 44.9324 158.473 45.2008 156.825 45.2008C154.839 45.2008 153.275 44.603 152.143 43.4196C151.012 42.2362 150.447 40.638 150.447 38.6494C150.447 36.6974 150.976 35.0626 152.035 33.7572C153.142 32.3664 154.634 31.671 156.512 31.671C158.353 31.671 159.761 32.3664 160.7 33.7572C161.458 34.8796 161.843 36.2338 161.843 37.8564ZM159.123 37.1122C159.147 36.2582 158.955 35.514 158.57 34.8918C158.076 34.0866 157.318 33.684 156.307 33.684C155.381 33.684 154.622 34.0744 154.045 34.8552C153.575 35.4774 153.287 36.2338 153.202 37.1L159.123 37.1122Z" fill="white"/>
<path d="M63.8132 20.5083H62.3209L61.5026 17.9097H58.6626L57.8804 20.5083H56.4363L59.2402 11.6511H60.9731L63.8132 20.5083ZM61.2499 16.8117L60.5158 14.4937C60.4436 14.2619 60.2992 13.7007 60.0706 12.8223H60.0465C59.9502 13.2005 59.8299 13.7495 59.6253 14.4937L58.9033 16.8117H61.2499ZM70.8411 14.1155L68.4583 20.5083H67.0985L64.7879 14.1155H66.2922L67.3632 17.4949C67.5437 18.0561 67.7002 18.5929 67.8205 19.1053H67.8566C67.9649 18.6417 68.1214 18.1049 68.3139 17.4949L69.3729 14.1155H70.8411ZM75.9194 20.5083L75.8111 19.7763H75.775C75.3418 20.3619 74.7281 20.6547 73.9338 20.6547C72.8026 20.6547 72.0084 19.8495 72.0084 18.7759C72.0084 17.2021 73.3562 16.3847 75.6908 16.3847V16.2627C75.6908 15.4209 75.2455 15.0061 74.3791 15.0061C73.7533 15.0061 73.2118 15.1647 72.7304 15.4819L72.4416 14.5547C73.0192 14.1887 73.7533 14.0057 74.6077 14.0057C76.2564 14.0057 77.0868 14.8841 77.0868 16.6531V19.0077C77.0868 19.6543 77.1108 20.1545 77.183 20.5327L75.9194 20.5083ZM75.7269 17.3241C74.1745 17.3241 73.3923 17.7023 73.3923 18.6173C73.3923 19.2883 73.7894 19.6177 74.355 19.6177C75.065 19.6177 75.7269 19.0687 75.7269 18.3123V17.3241ZM80.2036 13.0663C79.7342 13.0663 79.3732 12.7003 79.3732 12.2123C79.3732 11.7243 79.7463 11.3705 80.2276 11.3705C80.709 11.3705 81.0941 11.7243 81.0821 12.2123C81.0821 12.7247 80.721 13.0663 80.2036 13.0663ZM79.5297 14.1155H80.9256V20.4961H79.5297V14.1155ZM83.4167 11.1875H84.8126V20.4961H83.4167V11.1875ZM90.7575 20.5083L90.6492 19.7763H90.6131C90.1798 20.3619 89.5661 20.6547 88.7718 20.6547C87.6406 20.6547 86.8464 19.8495 86.8464 18.7759C86.8464 17.2021 88.1942 16.3847 90.5288 16.3847V16.2627C90.5288 15.4209 90.0835 15.0061 89.2171 15.0061C88.5913 15.0061 88.0498 15.1647 87.5684 15.4819L87.2796 14.5425C87.8573 14.1765 88.5913 13.9935 89.4457 13.9935C91.0944 13.9935 91.9248 14.8719 91.9248 16.6409V18.9955C91.9248 19.6421 91.9488 20.1423 92.009 20.5205H90.7575V20.5083ZM90.5649 17.3241C89.0125 17.3241 88.2303 17.7023 88.2303 18.6173C88.2303 19.2883 88.6274 19.6177 89.193 19.6177C89.903 19.6177 90.5649 19.0687 90.5649 18.3123V17.3241ZM97.6049 20.6547C96.7143 20.6547 96.0525 20.2765 95.6192 19.5201H95.5952L95.5109 20.5083H94.3195C94.3557 19.9959 94.3677 19.4225 94.3677 18.7881V11.1875H95.7757V15.0549H95.7997C96.2209 14.3473 96.8828 13.9935 97.8094 13.9935C99.3257 13.9935 100.385 15.3111 100.385 17.2265C100.385 19.2029 99.2054 20.6547 97.6049 20.6547ZM97.316 15.1037C96.5098 15.1037 95.7757 15.8113 95.7757 16.7995V17.9219C95.7757 18.8003 96.4375 19.5201 97.292 19.5201C98.3389 19.5201 98.9647 18.6539 98.9647 17.2753C98.9647 15.9821 98.3149 15.1037 97.316 15.1037ZM102.455 11.1875H103.851V20.4961H102.455V11.1875ZM111.468 17.6535H107.268C107.292 18.8613 108.087 19.5445 109.254 19.5445C109.88 19.5445 110.445 19.4347 110.951 19.2395L111.167 20.2277C110.578 20.4961 109.88 20.6181 109.061 20.6181C107.088 20.6181 105.92 19.3615 105.92 17.3973C105.92 15.4453 107.112 13.9691 108.905 13.9691C110.505 13.9691 111.528 15.1769 111.528 17.0069C111.528 17.2631 111.516 17.4827 111.468 17.6535ZM110.192 16.6409C110.192 15.6527 109.699 14.9573 108.809 14.9573C108.002 14.9573 107.377 15.6649 107.28 16.6409H110.192ZM119.952 20.6547C118.111 20.6547 116.92 19.2639 116.92 17.3729C116.92 15.3965 118.135 13.9935 120.06 13.9935C121.878 13.9935 123.093 15.3233 123.093 17.2631C123.093 19.2517 121.841 20.6547 119.952 20.6547ZM120.012 15.0305C119.001 15.0305 118.352 15.9943 118.352 17.3241C118.352 18.6417 119.013 19.5933 120 19.5933C120.987 19.5933 121.649 18.5685 121.649 17.2875C121.637 15.9943 120.999 15.0305 120.012 15.0305ZM130.614 20.5083H129.218V16.8361C129.218 15.7015 128.785 15.1403 127.943 15.1403C127.112 15.1403 126.547 15.8601 126.547 16.7019V20.4961H125.151V15.9455C125.151 15.3843 125.139 14.7743 125.103 14.1155H126.33L126.39 15.1037H126.426C126.8 14.4205 127.57 13.9813 128.424 13.9813C129.748 13.9813 130.614 15.0061 130.614 16.6775V20.5083ZM139.772 15.1891H138.232V18.2879C138.232 19.0809 138.509 19.4713 139.05 19.4713C139.291 19.4713 139.508 19.4469 139.676 19.4103L139.712 20.4839C139.435 20.5937 139.074 20.6425 138.629 20.6425C137.522 20.6425 136.872 20.0203 136.872 18.4099V15.1891H135.957V14.1277H136.872V12.9565L138.244 12.5295V14.1155H139.784V15.1891H139.772ZM147.185 20.5083H145.789V16.8605C145.789 15.7137 145.356 15.1403 144.514 15.1403C143.792 15.1403 143.118 15.6405 143.118 16.6531V20.4961H141.722V11.1875H143.118V15.0183H143.142C143.587 14.3229 144.213 13.9813 145.031 13.9813C146.367 13.9813 147.185 15.0305 147.185 16.7019V20.5083ZM154.333 17.6535H150.134C150.158 18.8613 150.952 19.5445 152.119 19.5445C152.745 19.5445 153.311 19.4347 153.816 19.2395L154.033 20.2277C153.443 20.4961 152.745 20.6181 151.927 20.6181C149.953 20.6181 148.786 19.3615 148.786 17.3973C148.786 15.4453 149.977 13.9691 151.77 13.9691C153.371 13.9691 154.394 15.1769 154.394 17.0069C154.394 17.2631 154.382 17.4827 154.333 17.6535ZM153.058 16.6409C153.058 15.6527 152.564 14.9573 151.674 14.9573C150.868 14.9573 150.23 15.6649 150.146 16.6409H153.058Z" fill="white"/>
</g>
<defs>
<clipPath id="clip0_1420_6103">
<rect width="177.809" height="61" fill="white"/>
</clipPath>
</defs>
</svg>
