<svg width="185" height="61" viewBox="0 0 185 61" fill="none" xmlns="http://www.w3.org/2000/svg">
<g clip-path="url(#clip0_1420_6094)">
<path d="M184.638 52.7559C184.638 57.3082 180.991 61 176.493 61H8.48723C3.9886 61.0004 0.340332 57.3085 0.340332 52.7559V8.24339C0.340332 3.69148 3.9886 0 8.48723 0H176.493C180.991 0 184.638 3.69148 184.638 8.24339V52.7559H184.638Z" fill="black"/>
<path d="M14.1643 11.7437V53.0528L34.751 32.3984L14.1643 11.7437Z" fill="url(#paint0_linear_1420_6094)"/>
<path d="M40.2801 26.8508L31.97 21.9962L14.1643 11.5938V11.744L34.751 32.3987L40.2801 26.8508Z" fill="url(#paint1_linear_1420_6094)"/>
<path d="M14.1643 53.0533V53.2036L31.97 42.8007L40.2798 37.9462L34.751 32.3989L14.1643 53.0533Z" fill="url(#paint2_linear_1420_6094)"/>
<path d="M40.2799 26.8506L34.7507 32.3985L40.2795 37.9458L49.7765 32.3982L40.2799 26.8506Z" fill="url(#paint3_linear_1420_6094)"/>
<path d="M143.77 40.4732C142.996 40.4732 142.291 40.3289 141.652 40.0405C141.013 39.7517 140.476 39.3076 140.043 38.709H139.913C140 39.4105 140.043 40.0755 140.043 40.7037V45.6472H138.246V28.2405H139.708L139.956 29.8848H140.043C140.506 29.2267 141.044 28.7524 141.657 28.46C142.271 28.1676 142.976 28.0214 143.769 28.0214C145.344 28.0214 146.559 28.5661 147.415 29.6547C148.27 30.7434 148.699 32.271 148.699 34.2362C148.699 36.2093 148.263 37.7417 147.394 38.8351C146.524 39.9274 145.316 40.4732 143.77 40.4732ZM143.51 29.5669C142.296 29.5669 141.419 29.907 140.877 30.5863C140.336 31.2659 140.058 32.3476 140.043 33.8312V34.2362C140.043 35.9246 140.321 37.1321 140.877 37.8595C141.434 38.5869 142.326 38.9496 143.553 38.9496C144.579 38.9496 145.383 38.53 145.964 37.6896C146.545 36.8496 146.836 35.6913 146.836 34.2143C146.836 32.717 146.545 31.567 145.964 30.7671C145.383 29.9665 144.564 29.5669 143.51 29.5669ZM152.862 40.2538H151.064V23.1982H152.862V40.2538ZM163.201 40.2538L162.843 38.5439H162.757C162.165 39.2971 161.574 39.8071 160.986 40.0729C160.397 40.3402 159.662 40.4733 158.781 40.4733C157.604 40.4733 156.682 40.1663 156.013 39.5526C155.345 38.9391 155.011 38.0662 155.011 36.9331C155.011 34.5074 156.929 33.2357 160.764 33.1183L162.779 33.0524V32.3071C162.779 31.3643 162.579 30.6679 162.178 30.2191C161.777 29.7692 161.135 29.5446 160.255 29.5446C159.265 29.5446 158.146 29.8516 156.897 30.4652L156.344 29.0732C156.929 28.7516 157.57 28.4997 158.267 28.317C158.964 28.1344 159.662 28.0429 160.363 28.0429C161.779 28.0429 162.828 28.3605 163.51 28.9963C164.192 29.6322 164.534 30.6515 164.534 32.0549V40.2534H163.201V40.2538H163.201ZM159.139 38.9719C160.258 38.9719 161.137 38.6612 161.776 38.0403C162.415 37.4194 162.735 36.5495 162.735 35.4309V34.3459L160.936 34.4221C159.507 34.4743 158.476 34.6981 157.844 35.0973C157.212 35.4955 156.896 36.1149 156.896 36.9553C156.896 37.6127 157.092 38.1136 157.487 38.4563C157.88 38.8001 158.431 38.9719 159.139 38.9719ZM165.578 28.2405H167.505L170.105 35.0915C170.676 36.6556 171.03 37.7844 171.168 38.4789H171.254C171.348 38.1056 171.545 37.4686 171.844 36.5652C172.144 35.6625 173.125 32.8883 174.785 28.2405H176.714L171.612 41.9203C171.106 43.2722 170.516 44.2314 169.84 44.7987C169.165 45.3646 168.336 45.6472 167.355 45.6472C166.806 45.6472 166.264 45.5852 165.729 45.4612V44.0035C166.126 44.091 166.571 44.1352 167.062 44.1352C168.297 44.1352 169.177 43.4337 169.705 42.0304L170.366 40.3208L165.578 28.2405ZM110.458 29.3569C111.029 29.8348 112.221 30.8389 112.221 32.7497C112.221 34.6081 111.178 35.4893 110.135 36.3173C109.812 36.6435 109.439 36.9965 109.439 37.5499C109.439 38.1015 109.812 38.4035 110.086 38.6299L110.98 39.332C112.073 40.2621 113.065 41.1171 113.065 42.8514C113.065 45.2133 110.805 47.5995 106.534 47.5995C102.933 47.5995 101.196 45.8662 101.196 44.0057C101.196 43.1015 101.64 41.8207 103.108 40.9403C104.646 39.9854 106.734 39.8611 107.851 39.7838C107.502 39.3321 107.106 38.8545 107.106 38.0768C107.106 37.6502 107.23 37.3986 107.354 37.0957C107.08 37.1212 106.807 37.1463 106.558 37.1463C103.927 37.1463 102.437 35.1611 102.437 33.2022C102.437 32.0461 102.959 30.7638 104.026 29.8352C105.442 28.6543 107.13 28.4527 108.472 28.4527H113.587L111.997 29.3572H110.458V29.3569H110.458ZM108.694 40.5141C108.496 40.4878 108.371 40.4878 108.124 40.4878C107.901 40.4878 106.558 40.5392 105.516 40.8918C104.97 41.0912 103.38 41.6943 103.38 43.4793C103.38 45.2625 105.095 46.5459 107.752 46.5459C110.134 46.5459 111.402 45.3876 111.402 43.8311C111.402 42.547 110.583 41.8714 108.694 40.5141ZM109.415 35.739C109.986 35.1604 110.035 34.3572 110.035 33.9044C110.035 32.0957 108.967 29.2814 106.907 29.2814C106.26 29.2814 105.565 29.6077 105.168 30.1108C104.746 30.6384 104.621 31.3162 104.621 31.9702C104.621 33.6536 105.59 36.443 107.726 36.443C108.347 36.443 109.016 36.1415 109.415 35.739ZM94.8242 40.1119C90.8827 40.1119 88.7752 37.0009 88.7752 34.1906C88.7752 30.9038 91.4275 28.0954 95.1976 28.0954C98.8404 28.0954 101.122 30.9793 101.122 34.0156C101.122 36.9746 98.8667 40.1119 94.8242 40.1119ZM97.923 38.0801C98.519 37.2765 98.6678 36.2735 98.6678 35.2943C98.6678 33.0859 97.6265 28.872 94.5518 28.872C93.7339 28.872 92.916 29.1987 92.3211 29.7266C91.354 30.6034 91.1796 31.7078 91.1796 32.7877C91.1796 35.2695 92.3946 39.3576 95.3954 39.3576C96.3621 39.3576 97.354 38.8818 97.923 38.0801ZM81.386 40.1119C77.4437 40.1119 75.3358 37.0009 75.3358 34.1906C75.3358 30.9038 77.9892 28.0954 81.7582 28.0954C85.4022 28.0954 87.683 30.9793 87.683 34.0156C87.6834 36.9746 85.4278 40.1119 81.386 40.1119ZM84.4855 38.0801C85.0804 37.2765 85.2296 36.2735 85.2296 35.2943C85.2296 33.0859 84.1875 28.872 81.1129 28.872C80.2953 28.872 79.4767 29.1987 78.8821 29.7266C77.915 30.6034 77.7417 31.7078 77.7417 32.7877C77.7417 35.2695 78.956 39.3576 81.9571 39.3576C82.9242 39.3576 83.9155 38.8818 84.4855 38.0801ZM73.442 39.7185L69.8769 40.5509C68.4306 40.7784 67.1349 40.9786 65.7646 40.9786C58.8839 40.9786 56.2676 35.8582 56.2676 31.8477C56.2676 26.9553 59.9811 22.4165 66.3382 22.4165C67.6848 22.4165 68.9798 22.6178 70.1512 22.9459C72.0205 23.4757 72.8929 24.1308 73.4416 24.5097L71.3719 26.5021L70.5 26.703L71.123 25.6938C70.2758 24.8622 68.729 23.324 65.7887 23.324C61.8501 23.324 58.8832 26.3519 58.8832 30.7653C58.8832 35.5057 62.2738 39.9701 67.7067 39.9701C69.3037 39.9701 70.1245 39.6427 70.8729 39.3394V35.2796L67.1097 35.4813L69.103 34.3955H74.3878L73.7403 35.0259C73.5645 35.1779 73.5404 35.229 73.4907 35.4288C73.4647 35.6563 73.4413 36.3884 73.4413 36.6403V39.7186H73.442V39.7185Z" fill="#F9F9F9"/>
<path d="M118.337 38.9927C117.514 38.9168 117.341 38.7662 117.341 37.7815V23.5063C117.346 23.452 117.35 23.3962 117.355 23.3437C117.455 22.4614 117.704 22.3101 118.478 21.8555H114.912L113.042 22.7637H114.948V22.775L114.946 22.7658V38.3371C114.946 38.8406 114.848 38.9172 114.274 39.673H118.686L119.609 39.1195C119.185 39.0674 118.761 39.043 118.337 38.9927ZM128.48 39.2245C128.208 39.3751 127.936 39.5512 127.665 39.6755C126.846 40.0511 126.005 40.1517 125.261 40.1517C124.471 40.1517 123.232 40.0999 121.968 39.1742C120.212 37.9208 119.445 35.7668 119.445 33.8888C119.445 30.007 122.564 28.1034 125.113 28.1034C126.005 28.1034 126.922 28.3284 127.664 28.8053C128.901 29.6303 129.223 30.7074 129.395 31.2838L123.579 33.6642L121.672 33.8144C122.29 36.9954 124.419 38.8475 126.772 38.8475C128.034 38.8475 128.95 38.3976 129.792 37.9725L128.48 39.2245ZM126.153 31.7592C126.623 31.5845 126.87 31.4336 126.87 31.0832C126.87 30.0821 125.757 28.9292 124.419 28.9292C123.428 28.9292 121.573 29.7062 121.573 32.4107C121.573 32.8366 121.622 33.2872 121.648 33.7396L126.153 31.7592ZM130.869 28.2748V29.9275H130.67V28.2748H130.13V28.1034H131.409V28.2748H130.869ZM133.096 29.9275V28.2595H133.087L132.584 29.9275H132.429L131.921 28.2595H131.915V29.9275H131.734V28.1034H132.043L132.502 29.5778H132.509L132.961 28.1034H133.274V29.9275H133.096Z" fill="#F9F9F9"/>
<path d="M61.2184 17.5057H59.9796C59.9796 17.3332 59.8621 16.845 59.6272 16.0407H57.8389C57.5964 16.8319 57.475 17.32 57.475 17.5057H56.3101C56.3101 17.4039 56.6113 16.5683 57.2137 14.9991C57.8162 13.4299 58.1174 12.5654 58.1174 12.4065H59.5807C59.5807 12.5552 59.8535 13.4069 60.3994 14.9619C60.9452 16.5169 61.2184 17.3646 61.2184 17.5057ZM59.4301 15.2926C58.9887 13.9454 58.7682 13.217 58.7682 13.1072H58.7062C58.7062 13.209 58.4778 13.9374 58.0212 15.2926H59.4301ZM66.2096 17.5057H65.2536C65.2536 17.3985 64.8987 16.8333 64.1892 15.8099C63.4462 14.7315 63.0229 13.9943 62.9198 13.5973H62.8579C62.9224 14.1689 62.9548 14.6859 62.9548 15.1482C62.9548 15.7932 62.9728 16.5793 63.0089 17.506H62.0565C62.0951 16.6967 62.1146 15.8078 62.1146 14.8391C62.1146 13.8861 62.0951 13.0752 62.0565 12.4069H63.2059C63.2059 12.5454 63.5245 13.0978 64.1619 14.0636C64.8404 15.0895 65.2302 15.7855 65.3308 16.1512H65.3888C65.3269 15.569 65.2958 15.0469 65.2958 14.5846C65.2958 13.8773 65.2778 13.151 65.2418 12.4069H66.2096C66.1732 13.0544 66.1555 13.8652 66.1555 14.8391C66.1552 15.8202 66.1732 16.709 66.2096 17.5057ZM71.8194 14.7796C71.8194 15.5212 71.5845 16.1687 71.115 16.7222C70.6451 17.276 69.9872 17.5524 69.1408 17.5524C68.7588 17.5524 68.2324 17.5366 67.5615 17.5053C67.595 16.7167 67.6119 15.8274 67.6119 14.8383C67.6119 13.8882 67.595 13.0774 67.5615 12.4061H68.2389C68.3499 12.4061 68.5149 12.4021 68.7344 12.3945C68.9534 12.3868 69.0968 12.3828 69.1638 12.3828C70.0953 12.3828 70.7706 12.618 71.1903 13.0879C71.6097 13.5579 71.8194 14.1215 71.8194 14.7796ZM70.7629 14.948C70.7629 14.4467 70.6184 14.0245 70.3295 13.6807C70.0405 13.3376 69.5991 13.1659 69.0056 13.1659C68.8947 13.1659 68.7426 13.1776 68.5487 13.2013C68.5743 13.7237 68.5873 14.2692 68.5873 14.8383C68.5873 15.4625 68.6003 16.0812 68.6258 16.6948C68.7914 16.7286 68.9599 16.7457 69.1288 16.7458C69.6837 16.7458 70.0945 16.5712 70.3615 16.2227C70.6286 15.8741 70.7629 15.4493 70.7629 14.948ZM76.9926 17.5057H75.8467C75.5473 16.5814 75.3178 16.0108 75.1578 15.7943C74.9979 15.5773 74.7399 15.4691 74.3839 15.4691C74.234 15.4691 74.0909 15.4705 73.9544 15.4731C73.9544 16.1443 73.9659 16.8217 73.9893 17.5057H72.9134C72.9469 16.717 72.9638 15.8278 72.9638 14.8387C72.9638 13.8886 72.9469 13.0777 72.9134 12.4065H73.5828C73.6603 12.4065 73.8221 12.4025 74.0686 12.3948C74.315 12.3872 74.5428 12.3831 74.7518 12.3831C75.9361 12.3831 76.5285 12.7929 76.5285 13.6129C76.5285 14.263 76.1905 14.7158 75.5146 14.9721V15.0308C75.7751 15.1037 76.0035 15.3097 76.1995 15.6473C76.3952 15.9853 76.6596 16.6048 76.9926 17.5057ZM75.5412 13.9024C75.5412 13.3828 75.2108 13.1229 74.5503 13.1229C74.3078 13.1229 74.0934 13.1411 73.9079 13.1776C73.9363 13.5823 73.9504 14.1099 73.9504 14.7599C74.0924 14.7654 74.2124 14.7676 74.3103 14.7676C75.1308 14.7679 75.5412 14.4796 75.5412 13.9024ZM82.5408 14.862C82.5408 15.6634 82.2983 16.328 81.813 16.8556C81.3276 17.3828 80.7277 17.6467 80.0132 17.6467C79.3318 17.6467 78.7614 17.4046 78.3023 16.9201C77.8429 16.4359 77.6134 15.8202 77.6134 15.0738C77.6134 14.2724 77.8559 13.6078 78.3413 13.0802C78.8263 12.553 79.4262 12.2891 80.141 12.2891C80.8224 12.2891 81.3925 12.5304 81.8519 13.0135C82.3113 13.4966 82.5408 14.1124 82.5408 14.862ZM81.4728 14.9754C81.4728 14.4296 81.3348 13.987 81.0588 13.6476C80.7824 13.3081 80.4419 13.1386 80.0369 13.1386C79.66 13.1386 79.3401 13.3096 79.077 13.6516C78.814 13.9936 78.6818 14.4256 78.6818 14.9481C78.6818 15.4909 78.8205 15.9328 79.0979 16.2737C79.3754 16.6146 79.7152 16.7849 80.118 16.7849C80.4945 16.7849 80.8149 16.6132 81.0779 16.2697C81.3409 15.9266 81.4728 15.4949 81.4728 14.9754ZM84.7294 17.5057H83.634C83.6675 16.6963 83.6845 15.8074 83.6845 14.8387C83.6845 13.8856 83.6676 13.0748 83.634 12.4065H84.7294C84.6959 13.0646 84.679 13.8751 84.679 14.8387C84.679 15.8227 84.6959 16.7119 84.7294 17.5057ZM90.3396 14.7796C90.3396 15.5212 90.1047 16.1687 89.6352 16.7222C89.1654 17.276 88.5074 17.5524 87.661 17.5524C87.2791 17.5524 86.7526 17.5366 86.0817 17.5053C86.1152 16.7167 86.1322 15.8274 86.1322 14.8383C86.1322 13.8882 86.1153 13.0774 86.0817 12.4061H86.7591C86.8701 12.4061 87.0351 12.4021 87.2546 12.3945C87.4737 12.3868 87.617 12.3828 87.6841 12.3828C88.6155 12.3828 89.2908 12.618 89.7105 13.0879C90.1299 13.5579 90.3396 14.1215 90.3396 14.7796ZM89.2832 14.948C89.2832 14.4467 89.1387 14.0245 88.8497 13.6807C88.5607 13.3376 88.1193 13.1659 87.5259 13.1659C87.4149 13.1659 87.2628 13.1776 87.069 13.2013C87.0945 13.7237 87.1075 14.2692 87.1075 14.8383C87.1075 15.4625 87.1205 16.0812 87.146 16.6948C87.3116 16.7286 87.4801 16.7457 87.6491 16.7458C88.2039 16.7458 88.6147 16.5712 88.8817 16.2227C89.1488 15.8741 89.2832 15.4493 89.2832 14.948ZM97.7825 17.5057H96.5437C96.5437 17.3332 96.4262 16.845 96.1909 16.0407H94.4026C94.1601 16.8319 94.0387 17.32 94.0387 17.5057H92.8742C92.8742 17.4039 93.1754 16.5683 93.7778 14.9991C94.3803 13.4299 94.6815 12.5654 94.6815 12.4065H96.1448C96.1448 12.5552 96.4179 13.4069 96.9635 14.9619C97.509 16.5169 97.7825 17.3646 97.7825 17.5057ZM95.9942 15.2926C95.5528 13.9454 95.3319 13.217 95.3319 13.1072H95.2699C95.2699 13.209 95.0418 13.9374 94.5853 15.2926H95.9942ZM102.297 13.7416C102.297 14.3658 102.068 14.8266 101.61 15.1241C101.152 15.4217 100.59 15.5707 99.9245 15.5707C99.8031 15.5707 99.717 15.5682 99.6651 15.5631C99.6651 16.0542 99.6791 16.7014 99.7076 17.5057H98.6198C98.6533 16.7513 98.6702 15.862 98.6702 14.8387C98.6702 13.8988 98.6533 13.0879 98.6198 12.4065H99.2932C99.3887 12.4065 99.5717 12.4025 99.8427 12.3948C100.114 12.3872 100.348 12.3831 100.547 12.3831C101.037 12.3831 101.452 12.4954 101.79 12.72C102.128 12.9446 102.297 13.2848 102.297 13.7416ZM101.299 13.9571C101.299 13.3985 100.932 13.1189 100.2 13.1189C100.016 13.1189 99.8226 13.1386 99.619 13.1776C99.6475 13.6713 99.6616 14.2298 99.6616 14.854C99.726 14.8595 99.801 14.8616 99.886 14.8616C100.828 14.862 101.299 14.5605 101.299 13.9571ZM106.94 13.7416C106.94 14.3658 106.711 14.8266 106.253 15.1241C105.795 15.4217 105.233 15.5707 104.567 15.5707C104.446 15.5707 104.359 15.5682 104.308 15.5631C104.308 16.0542 104.322 16.7014 104.35 17.5057H103.262C103.296 16.7513 103.313 15.862 103.313 14.8387C103.313 13.8988 103.296 13.0879 103.262 12.4065H103.936C104.031 12.4065 104.214 12.4025 104.485 12.3948C104.756 12.3872 104.991 12.3831 105.19 12.3831C105.68 12.3831 106.094 12.4954 106.432 12.72C106.77 12.9446 106.94 13.2848 106.94 13.7416ZM105.941 13.9571C105.941 13.3985 105.575 13.1189 104.842 13.1189C104.659 13.1189 104.465 13.1386 104.261 13.1776C104.29 13.6713 104.304 14.2298 104.304 14.854C104.368 14.8595 104.443 14.8616 104.528 14.8616C105.47 14.862 105.941 14.5605 105.941 13.9571ZM114.53 14.862C114.53 15.6634 114.287 16.328 113.802 16.8556C113.317 17.3831 112.717 17.6467 112.002 17.6467C111.321 17.6467 110.75 17.4046 110.291 16.9201C109.832 16.4359 109.603 15.8202 109.603 15.0738C109.603 14.2724 109.845 13.6078 110.33 13.0802C110.816 12.5527 111.416 12.2891 112.13 12.2891C112.812 12.2891 113.382 12.5304 113.841 13.0135C114.3 13.4966 114.53 14.1124 114.53 14.862ZM113.462 14.9754C113.462 14.4296 113.324 13.987 113.048 13.6476C112.772 13.3081 112.431 13.1386 112.026 13.1386C111.649 13.1386 111.329 13.3096 111.066 13.6516C110.803 13.9936 110.671 14.4256 110.671 14.9481C110.671 15.4909 110.81 15.9328 111.087 16.2737C111.364 16.6146 111.704 16.7849 112.107 16.7849C112.484 16.7849 112.804 16.6132 113.067 16.2697C113.33 15.9266 113.462 15.4949 113.462 14.9754ZM119.776 17.5057H118.82C118.82 17.3985 118.466 16.8333 117.756 15.8099C117.013 14.7315 116.589 13.9943 116.486 13.5973H116.424C116.489 14.1689 116.521 14.6859 116.521 15.1482C116.521 15.7932 116.539 16.5793 116.576 17.506H115.623C115.662 16.6967 115.681 15.8078 115.681 14.8391C115.681 13.8861 115.662 13.0752 115.623 12.4069H116.773C116.773 12.5454 117.091 13.0978 117.729 14.0636C118.407 15.0895 118.797 15.7855 118.897 16.1512H118.955C118.893 15.569 118.862 15.0469 118.862 14.5846C118.862 13.8773 118.844 13.151 118.808 12.4069H119.776C119.74 13.0544 119.722 13.8652 119.722 14.8391C119.722 15.8202 119.74 16.709 119.776 17.5057Z" fill="#F9F9FA"/>
</g>
<defs>
<linearGradient id="paint0_linear_1420_6094" x1="24.4576" y1="11.7437" x2="24.4576" y2="53.0529" gradientUnits="userSpaceOnUse">
<stop stop-color="#257CB0"/>
<stop offset="0.286" stop-color="#4A93B5"/>
<stop offset="0.767" stop-color="#78BCBB"/>
<stop offset="1" stop-color="#89CFBD"/>
</linearGradient>
<linearGradient id="paint1_linear_1420_6094" x1="14.1646" y1="21.9959" x2="40.2805" y2="21.9959" gradientUnits="userSpaceOnUse">
<stop stop-color="#52C1AD"/>
<stop offset="1" stop-color="#DEE89A"/>
</linearGradient>
<linearGradient id="paint2_linear_1420_6094" x1="27.222" y1="32.399" x2="27.222" y2="53.2036" gradientUnits="userSpaceOnUse">
<stop stop-color="#EC413D"/>
<stop offset="0.167" stop-color="#DA4452"/>
<stop offset="0.575" stop-color="#B0487A"/>
<stop offset="0.862" stop-color="#954A92"/>
<stop offset="1" stop-color="#8A4A9D"/>
</linearGradient>
<linearGradient id="paint3_linear_1420_6094" x1="42.2638" y1="26.8506" x2="42.2638" y2="37.9455" gradientUnits="userSpaceOnUse">
<stop stop-color="#F58879"/>
<stop offset="0.119" stop-color="#F69079"/>
<stop offset="0.713" stop-color="#FCB877"/>
<stop offset="1" stop-color="#FEC874"/>
</linearGradient>
<clipPath id="clip0_1420_6094">
<rect width="184.298" height="61" fill="white" transform="translate(0.340332)"/>
</clipPath>
</defs>
</svg>
